<mxfile host="65bd71144e" scale="4" border="0">
    <diagram id="yczZ5k3r3iEyvaCJdAh7" name="Page-1">
        <mxGraphModel dx="620" dy="823" grid="1" gridSize="10" guides="1" tooltips="1" connect="1" arrows="1" fold="1" page="1" pageScale="1" pageWidth="850" pageHeight="1100" background="#FFFFFF" math="0" shadow="0">
            <root>
                <mxCell id="0"/>
                <mxCell id="1" parent="0"/>
                <mxCell id="123" value="" style="html=1;verticalLabelPosition=bottom;align=center;labelBackgroundColor=#ffffff;verticalAlign=top;strokeWidth=2;shadow=0;dashed=0;shape=mxgraph.ios7.icons.document;" vertex="1" parent="1">
                    <mxGeometry x="348.00000000000006" y="190" width="28" height="40" as="geometry"/>
                </mxCell>
                <mxCell id="124" value="" style="html=1;verticalLabelPosition=bottom;align=center;labelBackgroundColor=#ffffff;verticalAlign=top;strokeWidth=2;shadow=0;dashed=0;shape=mxgraph.ios7.icons.document;" vertex="1" parent="1">
                    <mxGeometry x="334" y="200" width="28" height="40" as="geometry"/>
                </mxCell>
                <mxCell id="126" style="edgeStyle=orthogonalEdgeStyle;rounded=0;orthogonalLoop=1;jettySize=auto;html=1;entryX=0.5;entryY=0;entryDx=0;entryDy=0;" edge="1" parent="1" source="122" target="125">
                    <mxGeometry relative="1" as="geometry"/>
                </mxCell>
                <mxCell id="122" value="&lt;font face=&quot;Times New Roman&quot;&gt;PDF Peraturan Perundang-undangan&lt;/font&gt;" style="html=1;verticalLabelPosition=bottom;align=center;labelBackgroundColor=#ffffff;verticalAlign=top;strokeWidth=2;shadow=0;dashed=0;shape=mxgraph.ios7.icons.document;" vertex="1" parent="1">
                    <mxGeometry x="320" y="210" width="28" height="40" as="geometry"/>
                </mxCell>
                <mxCell id="132" style="edgeStyle=orthogonalEdgeStyle;rounded=0;orthogonalLoop=1;jettySize=auto;html=1;" edge="1" parent="1" source="125" target="131">
                    <mxGeometry relative="1" as="geometry"/>
                </mxCell>
                <mxCell id="125" value="&lt;font face=&quot;Times New Roman&quot;&gt;Sistem Konversi&lt;/font&gt;" style="shape=offPageConnector;whiteSpace=wrap;html=1;labelBackgroundColor=white;sketch=0;strokeWidth=2;size=0.2;" vertex="1" parent="1">
                    <mxGeometry x="274" y="320" width="120" height="30" as="geometry"/>
                </mxCell>
                <mxCell id="135" style="edgeStyle=orthogonalEdgeStyle;rounded=0;orthogonalLoop=1;jettySize=auto;html=1;entryX=1;entryY=0;entryDx=0;entryDy=30;entryPerimeter=0;" edge="1" parent="1" source="127" target="131">
                    <mxGeometry relative="1" as="geometry">
                        <Array as="points">
                            <mxPoint x="482" y="430"/>
                        </Array>
                    </mxGeometry>
                </mxCell>
                <mxCell id="127" value="&lt;font face=&quot;Times New Roman&quot;&gt;&lt;i&gt;Client&lt;/i&gt;&lt;/font&gt;" style="shape=actor;whiteSpace=wrap;html=1;labelBackgroundColor=white;sketch=0;strokeWidth=2;fontSize=12;labelPosition=center;verticalLabelPosition=bottom;align=center;verticalAlign=top;" vertex="1" parent="1">
                    <mxGeometry x="468.92" y="210" width="26.67" height="40" as="geometry"/>
                </mxCell>
                <mxCell id="131" value="" style="shape=cylinder3;whiteSpace=wrap;html=1;boundedLbl=1;backgroundOutline=1;size=15;verticalAlign=top;align=center;" vertex="1" parent="1">
                    <mxGeometry x="315.25" y="400" width="37.5" height="50" as="geometry"/>
                </mxCell>
                <mxCell id="134" value="&lt;font face=&quot;Times New Roman&quot;&gt;KG Peraturan Perundang-undangan&lt;/font&gt;" style="text;html=1;align=center;verticalAlign=middle;resizable=0;points=[];autosize=1;strokeColor=none;" vertex="1" parent="1">
                    <mxGeometry x="239" y="450" width="190" height="20" as="geometry"/>
                </mxCell>
                <mxCell id="136" value="&lt;font face=&quot;Times New Roman&quot;&gt;query&lt;/font&gt;" style="text;html=1;align=center;verticalAlign=middle;resizable=0;points=[];autosize=1;strokeColor=none;" vertex="1" parent="1">
                    <mxGeometry x="410" y="410" width="40" height="20" as="geometry"/>
                </mxCell>
            </root>
        </mxGraphModel>
    </diagram>
</mxfile>